{
  "accessors": [
    {
      "bufferView": 2,
      "componentType": 5126,
      "count": 65532,
      "max": [
        361.9010009765625,
        93.940025329589844,
        346.84796142578125
      ],
      "min": [
        -325.5753173828125,
        -1297.7325439453125,
        -348.83160400390625
      ],
      "type": "VEC3"
    },
    {
      "bufferView": 2,
      "byteOffset": 786384,
      "componentType": 5126,
      "count": 65532,
      "max": [
        0.99999862909317017,
        0.99980908632278442,
        0.99994182586669922
      ],
      "min": [
        -0.99999862909317017,
        -0.9999738335609436,
        -0.99998116493225098
      ],
      "type": "VEC3"
    },
    {
      "bufferView": 1,
      "componentType": 5126,
      "count": 65532,
      "max": [
        4,
        27.666666030883789
      ],
      "min": [
        -0,
        -1.6363600492477417
      ],
      "type": "VEC2"
    },
    {
      "bufferView": 1,
      "byteOffset": 524256,
      "componentType": 5126,
      "count": 65532,
      "max": [
        4,
        27.666666030883789
      ],
      "min": [
        -0,
        -1.6363600492477417
      ],
      "type": "VEC2"
    },
    {
      "bufferView": 0,
      "componentType": 5125,
      "count": 207537,
      "max": [
        65531
      ],
      "min": [
        0
      ],
      "type": "SCALAR"
    },
    {
      "bufferView": 2,
      "byteOffset": 1572768,
      "componentType": 5126,
      "count": 65532,
      "max": [
        360.01705932617188,
        -353.05401611328125,
        387.05938720703125
      ],
      "min": [
        -406.71176147460938,
        -1304.236083984375,
        -398.26473999023438
      ],
      "type": "VEC3"
    },
    {
      "bufferView": 2,
      "byteOffset": 2359152,
      "componentType": 5126,
      "count": 65532,
      "max": [
        0.99914336204528809,
        0.99994343519210815,
        0.99996435642242432
      ],
      "min": [
        -0.99992769956588745,
        -0.99998205900192261,
        -0.99994421005249023
      ],
      "type": "VEC3"
    },
    {
      "bufferView": 1,
      "byteOffset": 1048512,
      "componentType": 5126,
      "count": 65532,
      "max": [
        2,
        27.833333969116211
      ],
      "min": [
        -0,
        1
      ],
      "type": "VEC2"
    },
    {
      "bufferView": 1,
      "byteOffset": 1572768,
      "componentType": 5126,
      "count": 65532,
      "max": [
        2,
        27.833333969116211
      ],
      "min": [
        -0,
        1
      ],
      "type": "VEC2"
    },
    {
      "bufferView": 0,
      "byteOffset": 830148,
      "componentType": 5125,
      "count": 172542,
      "max": [
        65531
      ],
      "min": [
        0
      ],
      "type": "SCALAR"
    },
    {
      "bufferView": 2,
      "byteOffset": 3145536,
      "componentType": 5126,
      "count": 39493,
      "max": [
        335.9088134765625,
        -279.51885986328125,
        357.07662963867188
      ],
      "min": [
        -385.35003662109375,
        -982.93402099609375,
        -401.63101196289062
      ],
      "type": "VEC3"
    },
    {
      "bufferView": 2,
      "byteOffset": 3619452,
      "componentType": 5126,
      "count": 39493,
      "max": [
        0.99990195035934448,
        0.99999290704727173,
        0.99999380111694336
      ],
      "min": [
        -0.99988782405853271,
        -0.99983274936676025,
        -0.9999537467956543
      ],
      "type": "VEC3"
    },
    {
      "bufferView": 1,
      "byteOffset": 2097024,
      "componentType": 5126,
      "count": 39493,
      "max": [
        4,
        27.666666030883789
      ],
      "min": [
        -0,
        -0
      ],
      "type": "VEC2"
    },
    {
      "bufferView": 1,
      "byteOffset": 2412968,
      "componentType": 5126,
      "count": 39493,
      "max": [
        4,
        27.666666030883789
      ],
      "min": [
        -0,
        -0
      ],
      "type": "VEC2"
    },
    {
      "bufferView": 0,
      "byteOffset": 1520316,
      "componentType": 5125,
      "count": 116037,
      "max": [
        39492
      ],
      "min": [
        0
      ],
      "type": "SCALAR"
    },
    {
      "bufferView": 2,
      "byteOffset": 4093368,
      "componentType": 5126,
      "count": 65532,
      "max": [
        377.80096435546875,
        -300.99176025390625,
        405.90252685546875
      ],
      "min": [
        -424.63787841796875,
        -1302.0601806640625,
        -414.97500610351562
      ],
      "type": "VEC3"
    },
    {
      "bufferView": 2,
      "byteOffset": 4879752,
      "componentType": 5126,
      "count": 65532,
      "max": [
        0.99992817640304565,
        0.89655369520187378,
        0.99987965822219849
      ],
      "min": [
        -0.99986183643341064,
        -0.89655029773712158,
        -0.99986851215362549
      ],
      "type": "VEC3"
    },
    {
      "bufferView": 3,
      "componentType": 5126,
      "count": 65532,
      "max": [
        0.99999845027923584,
        0.88619667291641235,
        0.99997818470001221,
        1
      ],
      "min": [
        -0.99995529651641846,
        -0.88939875364303589,
        -0.9999927282333374,
        1
      ],
      "type": "VEC4"
    },
    {
      "bufferView": 1,
      "byteOffset": 2728912,
      "componentType": 5126,
      "count": 65532,
      "max": [
        1,
        1
      ],
      "min": [
        0,
        -0
      ],
      "type": "VEC2"
    },
    {
      "bufferView": 0,
      "byteOffset": 1984464,
      "componentType": 5125,
      "count": 98298,
      "max": [
        65531
      ],
      "min": [
        0
      ],
      "type": "SCALAR"
    },
    {
      "bufferView": 2,
      "byteOffset": 5666136,
      "componentType": 5126,
      "count": 1900,
      "max": [
        337.66287231445312,
        -662.4326171875,
        296.58538818359375
      ],
      "min": [
        -19.162303924560547,
        -1004.5585327148438,
        -297.1585693359375
      ],
      "type": "VEC3"
    },
    {
      "bufferView": 2,
      "byteOffset": 5688936,
      "componentType": 5126,
      "count": 1900,
      "max": [
        0.99707168340682983,
        0.61764311790466309,
        0.98726636171340942
      ],
      "min": [
        -0.99773722887039185,
        -0.61736643314361572,
        -0.99796611070632935
      ],
      "type": "VEC3"
    },
    {
      "bufferView": 3,
      "byteOffset": 1048512,
      "componentType": 5126,
      "count": 1900,
      "max": [
        0.99912130832672119,
        0.58250993490219116,
        0.9993283748626709,
        1
      ],
      "min": [
        -0.99962824583053589,
        -0.58545905351638794,
        -0.99915260076522827,
        1
      ],
      "type": "VEC4"
    },
    {
      "bufferView": 1,
      "byteOffset": 3253168,
      "componentType": 5126,
      "count": 1900,
      "max": [
        1,
        1
      ],
      "min": [
        0,
        -0
      ],
      "type": "VEC2"
    },
    {
      "bufferView": 0,
      "byteOffset": 2377656,
      "componentType": 5125,
      "count": 2850,
      "max": [
        1899
      ],
      "min": [
        0
      ],
      "type": "SCALAR"
    },
    {
      "bufferView": 2,
      "byteOffset": 5711736,
      "componentType": 5126,
      "count": 3736,
      "max": [
        363.01470947265625,
        -639.365966796875,
        390.35977172851562
      ],
      "min": [
        -372.62799072265625,
        -1303.34814453125,
        -365.30227661132812
      ],
      "type": "VEC3"
    },
    {
      "bufferView": 2,
      "byteOffset": 5756568,
      "componentType": 5126,
      "count": 3736,
      "max": [
        0.99944472312927246,
        0.52778393030166626,
        0.99173116683959961
      ],
      "min": [
        -0.99364924430847168,
        -0.52777659893035889,
        -0.99718892574310303
      ],
      "type": "VEC3"
    },
    {
      "bufferView": 3,
      "byteOffset": 1078912,
      "componentType": 5126,
      "count": 3736,
      "max": [
        0.99989444017410278,
        0.51872807741165161,
        0.99998390674591064,
        1
      ],
      "min": [
        -0.99967271089553833,
        -0.52263939380645752,
        -0.99931043386459351,
        1
      ],
      "type": "VEC4"
    },
    {
      "bufferView": 1,
      "byteOffset": 3268368,
      "componentType": 5126,
      "count": 3736,
      "max": [
        1,
        1
      ],
      "min": [
        0,
        -0
      ],
      "type": "VEC2"
    },
    {
      "bufferView": 0,
      "byteOffset": 2389056,
      "componentType": 5125,
      "count": 5604,
      "max": [
        3735
      ],
      "min": [
        0
      ],
      "type": "SCALAR"
    }
  ],
  "asset": {
    "extras": {
      "author": "xfrog (https://sketchfab.com/xfrog)",
      "license": "CC-BY-NC-ND-4.0 (http://creativecommons.org/licenses/by-nc-nd/4.0/)",
      "source": "https://sketchfab.com/3d-models/ja02-acer-nikoense-nikko-maple-89d801cb29cc4f68ab1f1c6ac9636449",
      "title": "JA02 Acer Nikoense (Nikko Maple)"
    },
    "generator": "Sketchfab-10.3.0",
    "version": "2.0"
  },
  "bufferViews": [
    {
      "buffer": 0,
      "byteLength": 2411472,
      "byteOffset": 0,
      "name": "floatBufferViews",
      "target": 34963
    },
    {
      "buffer": 0,
      "byteLength": 3298256,
      "byteOffset": 2411472,
      "byteStride": 8,
      "name": "floatBufferViews",
      "target": 34962
    },
    {
      "buffer": 0,
      "byteLength": 5801400,
      "byteOffset": 5709728,
      "byteStride": 12,
      "name": "floatBufferViews",
      "target": 34962
    },
    {
      "buffer": 0,
      "byteLength": 1138688,
      "byteOffset": 11511128,
      "byteStride": 16,
      "name": "floatBufferViews",
      "target": 34962
    }
  ],
  "buffers": [
    {
      "byteLength": 12649816,
      "uri": "scene.bin"
    }
  ],
  "images": [
    {
      "uri": "textures/Bark01_SHD_baseColor.png"
    },
    {
      "uri": "textures/Leaf02_au_SHD_baseColor.png"
    },
    {
      "uri": "textures/Leaf02_au_SHD_metallicRoughness.png"
    },
    {
      "uri": "textures/Leaf02_au_SHD_normal.png"
    },
    {
      "uri": "textures/Leaf03_au_SHD_baseColor.png"
    }
  ],
  "materials": [
    {
      "doubleSided": true,
      "emissiveFactor": [
        0,
        0,
        0
      ],
      "name": "Bark01_SHD",
      "pbrMetallicRoughness": {
        "baseColorFactor": [
          1,
          1,
          1,
          1
        ],
        "baseColorTexture": {
          "index": 0,
          "texCoord": 0
        },
        "metallicFactor": 0,
        "roughnessFactor": 0.82111456180001685
      }
    },
    {
      "alphaCutoff": 0.29906775546472431,
      "alphaMode": "MASK",
      "doubleSided": true,
      "emissiveFactor": [
        0,
        0,
        0
      ],
      "name": "Leaf02_au_SHD",
      "normalTexture": {
        "index": 3,
        "scale": 1,
        "texCoord": 0
      },
      "pbrMetallicRoughness": {
        "baseColorFactor": [
          1,
          1,
          1,
          1
        ],
        "baseColorTexture": {
          "index": 1,
          "texCoord": 0
        },
        "metallicFactor": 1,
        "metallicRoughnessTexture": {
          "index": 2,
          "texCoord": 0
        },
        "roughnessFactor": 1
      }
    },
    {
      "alphaCutoff": 0.34762264069311433,
      "alphaMode": "MASK",
      "doubleSided": true,
      "emissiveFactor": [
        0,
        0,
        0
      ],
      "name": "Leaf03_au_SHD",
      "normalTexture": {
        "index": 3,
        "scale": 1,
        "texCoord": 0
      },
      "pbrMetallicRoughness": {
        "baseColorFactor": [
          1,
          1,
          1,
          1
        ],
        "baseColorTexture": {
          "index": 4,
          "texCoord": 0
        },
        "metallicFactor": 1,
        "metallicRoughnessTexture": {
          "index": 2,
          "texCoord": 0
        },
        "roughnessFactor": 1
      }
    }
  ],
  "meshes": [
    {
      "name": "Bark01_8_Bark01_SHD_0",
      "primitives": [
        {
          "attributes": {
            "NORMAL": 1,
            "POSITION": 0,
            "TEXCOORD_0": 2,
            "TEXCOORD_1": 3
          },
          "indices": 4,
          "material": 0,
          "mode": 4
        }
      ]
    },
    {
      "name": "Bark01_8_Bark01_SHD_0",
      "primitives": [
        {
          "attributes": {
            "NORMAL": 6,
            "POSITION": 5,
            "TEXCOORD_0": 7,
            "TEXCOORD_1": 8
          },
          "indices": 9,
          "material": 0,
          "mode": 4
        }
      ]
    },
    {
      "name": "Bark01_8_Bark01_SHD_0",
      "primitives": [
        {
          "attributes": {
            "NORMAL": 11,
            "POSITION": 10,
            "TEXCOORD_0": 12,
            "TEXCOORD_1": 13
          },
          "indices": 14,
          "material": 0,
          "mode": 4
        }
      ]
    },
    {
      "name": "Leaf02_8_Leaf02_au_SHD_0",
      "primitives": [
        {
          "attributes": {
            "NORMAL": 16,
            "POSITION": 15,
            "TANGENT": 17,
            "TEXCOORD_0": 18
          },
          "indices": 19,
          "material": 1,
          "mode": 4
        }
      ]
    },
    {
      "name": "Leaf02_8_Leaf02_au_SHD_0",
      "primitives": [
        {
          "attributes": {
            "NORMAL": 21,
            "POSITION": 20,
            "TANGENT": 22,
            "TEXCOORD_0": 23
          },
          "indices": 24,
          "material": 1,
          "mode": 4
        }
      ]
    },
    {
      "name": "Leaf03_8_Leaf03_au_SHD_0",
      "primitives": [
        {
          "attributes": {
            "NORMAL": 26,
            "POSITION": 25,
            "TANGENT": 27,
            "TEXCOORD_0": 28
          },
          "indices": 29,
          "material": 2,
          "mode": 4
        }
      ]
    }
  ],
  "nodes": [
    {
      "children": [
        1
      ],
      "name": "RootNode (gltf orientation matrix)",
      "rotation": [
        -0.70710678118654746,
        -0,
        -0,
        0.70710678118654757
      ]
    },
    {
      "children": [
        2
      ],
      "name": "RootNode (model correction matrix)"
    },
    {
      "children": [
        3
      ],
      "matrix": [
        1,
        0,
        0,
        0,
        0,
        0,
        1,
        0,
        0,
        -1,
        0,
        0,
        0,
        0,
        0,
        1
      ],
      "name": "c9a3a80c2dfb471d95ef34392abeefcc.fbx"
    },
    {
      "children": [
        4
      ],
      "name": "RootNode"
    },
    {
      "children": [
        5,
        9,
        12
      ],
      "matrix": [
        1,
        0,
        0,
        0,
        0,
        -0.9999999999999889,
        1.5099579909783709e-07,
        0,
        0,
        -1.5099579909783709e-07,
        -0.9999999999999889,
        0,
        0,
        0,
        0,
        1
      ],
      "name": "ABC_JA02_AcerNikoense_8.001"
    },
    {
      "children": [
        6,
        7,
        8
      ],
      "matrix": [
        1,
        0,
        0,
        0,
        0,
        1,
        -1.421085476814156e-14,
        0,
        0,
        1.421085476814156e-14,
        1,
        0,
        0,
        0,
        0,
        1
      ],
      "name": "Bark01_8"
    },
    {
      "mesh": 0,
      "name": "Bark01_8_Bark01_SHD_0"
    },
    {
      "mesh": 1,
      "name": "Bark01_8_Bark01_SHD_0"
    },
    {
      "mesh": 2,
      "name": "Bark01_8_Bark01_SHD_0"
    },
    {
      "children": [
        10,
        11
      ],
      "matrix": [
        1,
        0,
        0,
        0,
        0,
        1,
        -1.421085476814156e-14,
        0,
        0,
        1.421085476814156e-14,
        1,
        0,
        0,
        0,
        0,
        1
      ],
      "name": "Leaf02_8"
    },
    {
      "mesh": 3,
      "name": "Leaf02_8_Leaf02_au_SHD_0"
    },
    {
      "mesh": 4,
      "name": "Leaf02_8_Leaf02_au_SHD_0"
    },
    {
      "children": [
        13
      ],
      "matrix": [
        1,
        0,
        0,
        0,
        0,
        1,
        -1.421085476814156e-14,
        0,
        0,
        1.421085476814156e-14,
        1,
        0,
        0,
        0,
        0,
        1
      ],
      "name": "Leaf03_8"
    },
    {
      "mesh": 5,
      "name": "Leaf03_8_Leaf03_au_SHD_0"
    }
  ],
  "samplers": [
    {
      "magFilter": 9729,
      "minFilter": 9987,
      "wrapS": 10497,
      "wrapT": 10497
    }
  ],
  "scene": 0,
  "scenes": [
    {
      "name": "OSG_Scene",
      "nodes": [
        0
      ]
    }
  ],
  "textures": [
    {
      "sampler": 0,
      "source": 0
    },
    {
      "sampler": 0,
      "source": 1
    },
    {
      "sampler": 0,
      "source": 2
    },
    {
      "sampler": 0,
      "source": 3
    },
    {
      "sampler": 0,
      "source": 4
    }
  ]
}

